<svg xmlns="http://www.w3.org/2000/svg" xmlns:xlink="http://www.w3.org/1999/xlink" version="1.1" width="256" height="256" viewBox="0 0 256 256" xml:space="preserve">

<defs>
</defs>
<g style="stroke: none; stroke-width: 0; stroke-dasharray: none; stroke-linecap: butt; stroke-linejoin: miter; stroke-miterlimit: 10; fill: none; fill-rule: nonzero; opacity: 1;" transform="translate(1.4065934065934016 1.4065934065934016) scale(2.81 2.81)" >
	<path d="M 64.376 27.261 c -0.256 0 -0.512 -0.098 -0.707 -0.293 c -0.391 -0.391 -0.391 -1.023 0 -1.414 l 2.869 -2.869 c 0.979 -0.98 0.979 -2.575 0 -3.556 l -1.27 -1.268 c -0.961 -0.961 -2.493 -0.988 -3.487 -0.066 l -2.936 2.937 c -0.391 0.391 -1.023 0.391 -1.414 0 s -0.391 -1.023 0 -1.414 l 2.963 -2.963 c 1.815 -1.684 4.564 -1.63 6.288 0.092 l 1.27 1.268 c 1.76 1.761 1.76 4.624 0 6.384 l -2.869 2.869 C 64.888 27.164 64.632 27.261 64.376 27.261 z" style="stroke: none; stroke-width: 1; stroke-dasharray: none; stroke-linecap: butt; stroke-linejoin: miter; stroke-miterlimit: 10; fill: rgb(0,0,0); fill-rule: nonzero; opacity: 1;" transform=" matrix(1 0 0 1 0 0) " stroke-linecap="round" />
	<path d="M 38.914 64.851 c -0.267 0 -0.534 -0.004 -0.802 -0.014 c -0.552 -0.018 -0.984 -0.48 -0.966 -1.032 c 0.019 -0.553 0.493 -1.014 1.033 -0.966 c 8.56 0.278 16.557 -4.418 29.482 -17.344 c 0.391 -0.391 1.023 -0.391 1.414 0 s 0.391 1.023 0 1.414 C 56.092 59.892 47.803 64.851 38.914 64.851 z" style="stroke: none; stroke-width: 1; stroke-dasharray: none; stroke-linecap: butt; stroke-linejoin: miter; stroke-miterlimit: 10; fill: rgb(0,0,0); fill-rule: nonzero; opacity: 1;" transform=" matrix(1 0 0 1 0 0) " stroke-linecap="round" />
	<path d="M 17.603 85.381 c -0.256 0 -0.512 -0.098 -0.707 -0.293 c -0.391 -0.391 -0.391 -1.023 0 -1.414 l 20.542 -20.543 c 0.391 -0.391 1.023 -0.391 1.414 0 s 0.391 1.023 0 1.414 L 18.31 85.088 C 18.114 85.283 17.858 85.381 17.603 85.381 z" style="stroke: none; stroke-width: 1; stroke-dasharray: none; stroke-linecap: butt; stroke-linejoin: miter; stroke-miterlimit: 10; fill: rgb(0,0,0); fill-rule: nonzero; opacity: 1;" transform=" matrix(1 0 0 1 0 0) " stroke-linecap="round" />
	<path d="M 1 68.686 c -0.256 0 -0.512 -0.098 -0.707 -0.293 c -0.391 -0.391 -0.391 -1.023 0 -1.414 l 24.182 -24.182 c 0.391 -0.391 1.023 -0.391 1.414 0 s 0.391 1.023 0 1.414 L 1.707 68.393 C 1.512 68.588 1.256 68.686 1 68.686 z" style="stroke: none; stroke-width: 1; stroke-dasharray: none; stroke-linecap: butt; stroke-linejoin: miter; stroke-miterlimit: 10; fill: rgb(0,0,0); fill-rule: nonzero; opacity: 1;" transform=" matrix(1 0 0 1 0 0) " stroke-linecap="round" />
	<path d="M 54.691 24.473 c -0.256 0 -0.512 -0.098 -0.707 -0.293 c -0.391 -0.391 -0.391 -1.023 0 -1.414 l 7.373 -7.374 c 0.979 -0.98 0.979 -2.575 0 -3.556 l -1.269 -1.269 c -0.961 -0.96 -2.493 -0.988 -3.487 -0.066 l -9.269 9.27 c -0.391 0.391 -1.023 0.391 -1.414 0 s -0.391 -1.023 0 -1.414 l 9.296 -9.296 c 1.813 -1.684 4.564 -1.632 6.288 0.092 l 1.269 1.269 c 1.76 1.76 1.76 4.624 0 6.384 l -7.373 7.374 C 55.203 24.375 54.947 24.473 54.691 24.473 z" style="stroke: none; stroke-width: 1; stroke-dasharray: none; stroke-linecap: butt; stroke-linejoin: miter; stroke-miterlimit: 10; fill: rgb(0,0,0); fill-rule: nonzero; opacity: 1;" transform=" matrix(1 0 0 1 0 0) " stroke-linecap="round" />
	<path d="M 68.112 35.998 c -0.256 0 -0.512 -0.098 -0.707 -0.293 c -0.391 -0.39 -0.391 -1.023 0 -1.414 l 3.256 -3.256 c 0.979 -0.98 0.979 -2.575 0 -3.556 l -1.269 -1.269 c -0.96 -0.96 -2.49 -0.99 -3.487 -0.066 l -6.684 6.685 c -0.391 0.391 -1.023 0.391 -1.414 0 s -0.391 -1.023 0 -1.414 l 6.711 -6.711 c 1.814 -1.683 4.565 -1.632 6.288 0.092 l 1.269 1.269 c 1.76 1.76 1.76 4.624 0 6.384 l -3.256 3.256 C 68.624 35.9 68.368 35.998 68.112 35.998 z" style="stroke: none; stroke-width: 1; stroke-dasharray: none; stroke-linecap: butt; stroke-linejoin: miter; stroke-miterlimit: 10; fill: rgb(0,0,0); fill-rule: nonzero; opacity: 1;" transform=" matrix(1 0 0 1 0 0) " stroke-linecap="round" />
	<path d="M 68.367 47.202 c -0.256 0 -0.512 -0.098 -0.707 -0.293 c -0.391 -0.391 -0.391 -1.023 0 -1.414 l 6.819 -6.82 c 0.869 -0.869 0.869 -2.283 0 -3.151 l -1.165 -1.166 c -0.853 -0.852 -2.209 -0.875 -3.091 -0.058 l -7.146 7.146 c -0.391 0.391 -1.023 0.391 -1.414 0 s -0.391 -1.023 0 -1.414 l 7.173 -7.173 c 1.701 -1.579 4.276 -1.532 5.892 0.084 l 1.165 1.166 c 1.648 1.648 1.648 4.331 0 5.979 l -6.819 6.82 C 68.879 47.104 68.623 47.202 68.367 47.202 z" style="stroke: none; stroke-width: 1; stroke-dasharray: none; stroke-linecap: butt; stroke-linejoin: miter; stroke-miterlimit: 10; fill: rgb(0,0,0); fill-rule: nonzero; opacity: 1;" transform=" matrix(1 0 0 1 0 0) " stroke-linecap="round" />
	<path d="M 89 68.686 c -0.256 0 -0.512 -0.098 -0.707 -0.293 L 67.188 47.288 c -0.391 -0.391 -0.391 -1.023 0 -1.414 s 1.023 -0.391 1.414 0 l 21.104 21.104 c 0.391 0.391 0.391 1.023 0 1.414 C 89.512 68.588 89.256 68.686 89 68.686 z" style="stroke: none; stroke-width: 1; stroke-dasharray: none; stroke-linecap: butt; stroke-linejoin: miter; stroke-miterlimit: 10; fill: rgb(0,0,0); fill-rule: nonzero; opacity: 1;" transform=" matrix(1 0 0 1 0 0) " stroke-linecap="round" />
	<path d="M 72.397 85.381 c -0.256 0 -0.512 -0.098 -0.707 -0.293 L 48.626 62.023 c -0.391 -0.391 -0.391 -1.023 0 -1.414 s 1.023 -0.391 1.414 0 l 23.064 23.064 c 0.391 0.391 0.391 1.023 0 1.414 C 72.909 85.283 72.653 85.381 72.397 85.381 z" style="stroke: none; stroke-width: 1; stroke-dasharray: none; stroke-linecap: butt; stroke-linejoin: miter; stroke-miterlimit: 10; fill: rgb(0,0,0); fill-rule: nonzero; opacity: 1;" transform=" matrix(1 0 0 1 0 0) " stroke-linecap="round" />
	<path d="M 41.03 25.927 c -0.256 0 -0.512 -0.098 -0.707 -0.293 l -6.454 -6.454 c -1.579 -1.701 -1.53 -4.277 0.084 -5.892 l 1.166 -1.166 c 1.649 -1.648 4.332 -1.648 5.979 0 l 6.368 6.368 c 0.391 0.391 0.391 1.023 0 1.414 s -1.023 0.391 -1.414 0 l -6.368 -6.368 c -0.87 -0.869 -2.283 -0.869 -3.151 0 l -1.166 1.166 c -0.851 0.851 -0.876 2.208 -0.058 3.09 l 6.428 6.427 c 0.391 0.391 0.391 1.023 0 1.414 C 41.542 25.83 41.286 25.927 41.03 25.927 z" style="stroke: none; stroke-width: 1; stroke-dasharray: none; stroke-linecap: butt; stroke-linejoin: miter; stroke-miterlimit: 10; fill: rgb(0,0,0); fill-rule: nonzero; opacity: 1;" transform=" matrix(1 0 0 1 0 0) " stroke-linecap="round" />
	<path d="M 35.3 31.657 c -0.256 0 -0.512 -0.098 -0.707 -0.293 l -5.398 -5.397 c -1.579 -1.701 -1.53 -4.277 0.084 -5.892 l 1.166 -1.166 c 1.648 -1.648 4.331 -1.648 5.979 0 l 4.707 4.707 c 0.391 0.391 0.391 1.023 0 1.414 s -1.023 0.391 -1.414 0 l -4.707 -4.707 c -0.869 -0.868 -2.282 -0.868 -3.151 0 l -1.166 1.166 c -0.851 0.851 -0.876 2.208 -0.058 3.09 l 5.372 5.371 c 0.391 0.391 0.391 1.023 0 1.414 C 35.812 31.559 35.556 31.657 35.3 31.657 z" style="stroke: none; stroke-width: 1; stroke-dasharray: none; stroke-linecap: butt; stroke-linejoin: miter; stroke-miterlimit: 10; fill: rgb(0,0,0); fill-rule: nonzero; opacity: 1;" transform=" matrix(1 0 0 1 0 0) " stroke-linecap="round" />
	<path d="M 29.57 37.386 c -0.256 0 -0.512 -0.098 -0.707 -0.293 l -4.341 -4.341 c -1.579 -1.702 -1.53 -4.278 0.084 -5.892 l 1.166 -1.166 c 1.648 -1.649 4.331 -1.648 5.979 0 l 3.65 3.65 c 0.391 0.39 0.391 1.023 0 1.414 s -1.023 0.391 -1.414 0 l -3.65 -3.65 c -0.869 -0.868 -2.282 -0.868 -3.151 0 l -1.166 1.166 c -0.851 0.851 -0.876 2.208 -0.058 3.091 l 4.314 4.313 c 0.391 0.391 0.391 1.023 0 1.414 C 30.082 37.289 29.826 37.386 29.57 37.386 z" style="stroke: none; stroke-width: 1; stroke-dasharray: none; stroke-linecap: butt; stroke-linejoin: miter; stroke-miterlimit: 10; fill: rgb(0,0,0); fill-rule: nonzero; opacity: 1;" transform=" matrix(1 0 0 1 0 0) " stroke-linecap="round" />
	<path d="M 23.817 43.14 c -0.256 0 -0.512 -0.098 -0.707 -0.293 l -3.285 -3.285 c -1.579 -1.701 -1.53 -4.277 0.084 -5.892 l 1.166 -1.166 c 1.649 -1.649 4.332 -1.648 5.979 0 l 2.594 2.594 c 0.391 0.391 0.391 1.023 0 1.414 s -1.023 0.391 -1.414 0 l -2.594 -2.594 c -0.869 -0.868 -2.282 -0.868 -3.151 0 l -1.166 1.166 c -0.851 0.851 -0.876 2.208 -0.058 3.09 l 3.258 3.258 c 0.391 0.391 0.391 1.023 0 1.414 C 24.329 43.042 24.073 43.14 23.817 43.14 z" style="stroke: none; stroke-width: 1; stroke-dasharray: none; stroke-linecap: butt; stroke-linejoin: miter; stroke-miterlimit: 10; fill: rgb(0,0,0); fill-rule: nonzero; opacity: 1;" transform=" matrix(1 0 0 1 0 0) " stroke-linecap="round" />
	<path d="M 45.254 28.823 c -1.029 0 -2.059 -0.376 -2.875 -1.133 l -3.312 -3.311 c -0.391 -0.391 -0.391 -1.023 0 -1.414 s 1.023 -0.391 1.414 0 l 3.285 3.285 c 0.854 0.792 2.213 0.766 3.063 -0.084 L 47.995 25 c 0.869 -0.869 0.869 -2.283 0 -3.151 l -3.198 -3.199 c -0.391 -0.391 -0.391 -1.024 0 -1.414 c 0.391 -0.391 1.023 -0.391 1.414 0 l 3.198 3.199 c 1.648 1.648 1.648 4.331 0 5.979 l -1.166 1.166 C 47.416 28.407 46.336 28.823 45.254 28.823 z" style="stroke: none; stroke-width: 1; stroke-dasharray: none; stroke-linecap: butt; stroke-linejoin: miter; stroke-miterlimit: 10; fill: rgb(0,0,0); fill-rule: nonzero; opacity: 1;" transform=" matrix(1 0 0 1 0 0) " stroke-linecap="round" />
	<path d="M 39.525 34.553 c -1.029 0 -2.059 -0.376 -2.875 -1.133 l -3.312 -3.311 c -0.391 -0.391 -0.391 -1.023 0 -1.414 s 1.023 -0.391 1.414 0 l 3.285 3.285 c 0.855 0.792 2.211 0.767 3.063 -0.084 l 1.166 -1.166 c 0.869 -0.869 0.869 -2.283 0 -3.151 l -2.593 -2.594 c -0.391 -0.391 -0.391 -1.024 0 -1.414 c 0.391 -0.391 1.023 -0.391 1.414 0 l 2.593 2.594 c 1.648 1.648 1.648 4.331 0 5.979 l -1.166 1.166 C 41.687 34.136 40.606 34.553 39.525 34.553 z" style="stroke: none; stroke-width: 1; stroke-dasharray: none; stroke-linecap: butt; stroke-linejoin: miter; stroke-miterlimit: 10; fill: rgb(0,0,0); fill-rule: nonzero; opacity: 1;" transform=" matrix(1 0 0 1 0 0) " stroke-linecap="round" />
	<path d="M 33.795 40.282 c -1.029 0 -2.059 -0.376 -2.875 -1.133 l -3.312 -3.311 c -0.391 -0.391 -0.391 -1.024 0 -1.414 c 0.391 -0.391 1.023 -0.391 1.414 0 l 3.284 3.285 c 0.856 0.793 2.213 0.767 3.064 -0.084 l 1.166 -1.166 c 0.869 -0.869 0.869 -2.283 0 -3.151 l -2.594 -2.594 c -0.391 -0.391 -0.391 -1.023 0 -1.414 s 1.023 -0.391 1.414 0 l 2.594 2.594 c 1.648 1.648 1.648 4.331 0 5.979 l -1.166 1.166 C 35.957 39.866 34.877 40.282 33.795 40.282 z" style="stroke: none; stroke-width: 1; stroke-dasharray: none; stroke-linecap: butt; stroke-linejoin: miter; stroke-miterlimit: 10; fill: rgb(0,0,0); fill-rule: nonzero; opacity: 1;" transform=" matrix(1 0 0 1 0 0) " stroke-linecap="round" />
	<path d="M 28.042 46.035 c -1.029 0 -2.059 -0.376 -2.875 -1.133 l -3.312 -3.311 c -0.391 -0.391 -0.391 -1.023 0 -1.414 s 1.023 -0.391 1.414 0 l 3.285 3.285 c 0.855 0.792 2.212 0.765 3.063 -0.084 l 1.166 -1.166 c 0.421 -0.421 0.652 -0.98 0.652 -1.575 c 0 -0.595 -0.231 -1.155 -0.652 -1.576 l -2.594 -2.594 c -0.391 -0.391 -0.391 -1.023 0 -1.414 s 1.023 -0.391 1.414 0 l 2.594 2.594 c 0.799 0.798 1.238 1.86 1.238 2.99 c 0 1.129 -0.439 2.191 -1.238 2.989 l -1.166 1.166 C 30.204 45.619 29.124 46.035 28.042 46.035 z" style="stroke: none; stroke-width: 1; stroke-dasharray: none; stroke-linecap: butt; stroke-linejoin: miter; stroke-miterlimit: 10; fill: rgb(0,0,0); fill-rule: nonzero; opacity: 1;" transform=" matrix(1 0 0 1 0 0) " stroke-linecap="round" />
	<path d="M 48.322 15.93 c -1.434 0 -2.812 -0.729 -3.604 -2.037 l -0.854 -1.41 c -0.585 -0.966 -0.759 -2.102 -0.49 -3.199 c 0.27 -1.097 0.95 -2.023 1.916 -2.608 l 1.313 -0.795 c 0.473 -0.286 1.087 -0.135 1.374 0.337 c 0.286 0.472 0.135 1.087 -0.337 1.374 l -1.313 0.795 c -0.509 0.308 -0.868 0.796 -1.01 1.375 c -0.142 0.578 -0.05 1.176 0.258 1.686 l 0.854 1.41 c 0.623 1.029 1.935 1.376 2.987 0.794 l 1.386 -0.84 c 0.471 -0.286 1.086 -0.136 1.373 0.337 c 0.286 0.473 0.135 1.087 -0.338 1.374 l -1.418 0.858 C 49.75 15.753 49.029 15.93 48.322 15.93 z" style="stroke: none; stroke-width: 1; stroke-dasharray: none; stroke-linecap: butt; stroke-linejoin: miter; stroke-miterlimit: 10; fill: rgb(0,0,0); fill-rule: nonzero; opacity: 1;" transform=" matrix(1 0 0 1 0 0) " stroke-linecap="round" />
	<path d="M 49.802 15.586 c -0.338 0 -0.668 -0.171 -0.856 -0.482 c -0.286 -0.473 -0.135 -1.087 0.338 -1.374 l 2.695 -1.632 c 0.973 -0.642 1.271 -1.966 0.647 -2.995 l -0.854 -1.411 c -0.309 -0.509 -0.797 -0.867 -1.375 -1.009 s -1.176 -0.051 -1.685 0.258 l -2.593 1.57 c -0.472 0.287 -1.087 0.135 -1.373 -0.337 c -0.286 -0.473 -0.135 -1.087 0.337 -1.374 l 2.592 -1.569 c 0.964 -0.585 2.102 -0.759 3.198 -0.49 s 2.023 0.95 2.608 1.916 l 0.854 1.411 c 1.183 1.952 0.616 4.465 -1.291 5.721 l -2.728 1.653 C 50.157 15.54 49.979 15.586 49.802 15.586 z" style="stroke: none; stroke-width: 1; stroke-dasharray: none; stroke-linecap: butt; stroke-linejoin: miter; stroke-miterlimit: 10; fill: rgb(0,0,0); fill-rule: nonzero; opacity: 1;" transform=" matrix(1 0 0 1 0 0) " stroke-linecap="round" />
</g>
</svg>